<?xml version="1.0" encoding="iso-8859-1"?>
<!-- Uploaded to: SVG Repo, www.svgrepo.com, Generator: SVG Repo Mixer Tools -->
<svg xmlns="http://www.w3.org/2000/svg" xmlns:xlink="http://www.w3.org/1999/xlink" version="1.1" id="Layer_1"  viewBox="0 0 454.478 454.478" xml:space="preserve" width="512" height="512">
<g>
	<circle style="fill:#FCDD90;" cx="190.428" cy="90.063" r="72.717"/>
	<circle style="fill:#FFD039;" cx="190.428" cy="90.063" r="50.247"/>
	<rect x="7.5" y="401.133" style="fill:#FFD039;" width="439.478" height="25.499"/>
	<path style="fill:#EAB932;" d="M430.532,401.133h-322.48c83.99-12,86.99-31.5,104.99-57s72-22.5,70.5-41.99   c-1.48-19.2-34.93-38.39-35.98-38.99C249.272,263.803,359.092,305.893,430.532,401.133z"/>
	<path style="fill:#FFD039;" d="M283.542,302.143c1.5,19.49-52.5,16.49-70.5,41.99s-21,45-104.99,57h-73.5   c0,0,148.49-52.5,212.99-137.99c0,0,0.01,0,0.02,0.01C248.612,263.753,282.062,282.943,283.542,302.143z"/>
	<g>
		<path style="fill:#333333;" d="M7.5,408.633h439.478c4.143,0,7.5-3.358,7.5-7.5s-3.357-7.5-7.5-7.5h-12.736    c-37.554-48.938-84.881-83.438-118.287-103.891c-36.926-22.607-64.599-33.178-65.759-33.617c-3.118-1.18-6.635-0.162-8.642,2.498    c-59.385,78.72-194.288,129.851-208.322,135.01H7.5c-4.142,0-7.5,3.358-7.5,7.5S3.358,408.633,7.5,408.633z M415.09,393.633    H171.633c22.637-9.41,31.803-21.414,41.964-36.893c1.767-2.691,3.593-5.474,5.573-8.279c7.524-10.659,24.041-15.833,38.612-20.397    c16.934-5.305,34.444-10.79,33.235-26.501c-0.281-3.65-1.395-7.224-3.075-10.665C323.402,310.406,374.294,344.083,415.09,393.633z     M120.356,370.833c57.917-30.521,101.249-63.387,128.944-97.767c3.011,1.988,6.928,4.747,10.888,8.033    c9.788,8.123,15.425,15.799,15.873,21.615c0.293,3.814-13.582,8.161-22.765,11.037c-16.008,5.015-35.931,11.255-46.382,26.061    c-2.126,3.012-4.023,5.903-5.858,8.698c-13.323,20.297-22.964,34.975-93.554,45.124H73.052    C86.483,387.731,102.766,380.103,120.356,370.833z"/>
		<path style="fill:#333333;" d="M446.978,422.131H7.5c-4.142,0-7.5,3.358-7.5,7.5s3.358,7.5,7.5,7.5h439.478    c4.143,0,7.5-3.358,7.5-7.5S451.12,422.131,446.978,422.131z"/>
		<path style="fill:#333333;" d="M190.428,147.811c31.842,0,57.747-25.905,57.747-57.747s-25.905-57.748-57.747-57.748    c-31.842,0-57.748,25.906-57.748,57.748S158.585,147.811,190.428,147.811z M190.428,47.316c23.571,0,42.747,19.177,42.747,42.748    s-19.176,42.747-42.747,42.747c-23.571,0-42.748-19.176-42.748-42.747S166.856,47.316,190.428,47.316z"/>
	</g>
</g>















</svg>