<?xml version="1.0" encoding="utf-8"?><!-- Uploaded to: SVG Repo, www.svgrepo.com, Generator: SVG Repo Mixer Tools -->
<svg fill="#000000" width="800px" height="800px" viewBox="0 0 24 24" id="world" data-name="Flat Line" xmlns="http://www.w3.org/2000/svg" class="icon flat-line"><ellipse id="secondary" cx="12" cy="12" rx="3" ry="9" style="fill: rgb(44, 169, 188); stroke-width: 2;"></ellipse><path id="primary" d="M21,12a9,9,0,1,1-9-9A9,9,0,0,1,21,12ZM12,3c-1.66,0-3,4-3,9s1.34,9,3,9,3-4,3-9S13.66,3,12,3Z" style="fill: none; stroke: rgb(0, 0, 0); stroke-linecap: round; stroke-linejoin: round; stroke-width: 2;"></path><path id="primary-2" data-name="primary" d="M19.2,17.4a9.7,9.7,0,0,0-4.42-2.1,13,13,0,0,0-5.56,0A9.7,9.7,0,0,0,4.8,17.4" style="fill: none; stroke: rgb(0, 0, 0); stroke-linecap: round; stroke-linejoin: round; stroke-width: 2;"></path><path id="primary-3" data-name="primary" d="M19.2,6.6a9.7,9.7,0,0,1-4.42,2.1A12.53,12.53,0,0,1,12,9a12.53,12.53,0,0,1-2.78-.3A9.7,9.7,0,0,1,4.8,6.6" style="fill: none; stroke: rgb(0, 0, 0); stroke-linecap: round; stroke-linejoin: round; stroke-width: 2;"></path></svg>